<svg width="420" height="70" viewBox="0 0 420 70" fill="none" xmlns="http://www.w3.org/2000/svg">
<path fill-rule="evenodd" clip-rule="evenodd" d="M11.1839 52.6348C11.1839 45.6531 16.8113 39.9642 23.7887 39.9642C26.8218 39.9642 29.598 41.0373 31.7721 42.8289C28.8385 45.8951 25.9417 51.7382 25.9417 57.1161C25.9417 63.0543 30.1843 67.1994 35.4177 67.1994C40.6512 67.1994 44.8938 63.0543 44.8938 57.1161C44.8938 51.7911 41.7232 45.5188 38.6569 42.4894C40.7616 40.9026 43.3733 39.9642 46.2097 39.9642C53.1871 39.9642 58.8145 45.6531 58.8145 52.6348V67.07H65.7992V52.6348C65.7992 41.7192 57.0128 32.8994 46.2097 32.8994C42.0435 32.8994 38.1758 34.2126 34.9992 36.4489C31.8226 34.2126 27.9549 32.8994 23.7887 32.8994C12.9857 32.8994 4.19922 41.7192 4.19922 52.6348V67.07H11.1839V52.6348ZM37.909 57.1161C37.909 58.3354 37.4975 59.0582 37.1178 59.4521C36.7281 59.8562 36.1669 60.1347 35.4177 60.1347C34.6686 60.1347 34.1074 59.8562 33.7177 59.4521C33.3379 59.0582 32.9264 58.3354 32.9264 57.1161C32.9264 54.9147 33.8527 52.0863 35.3066 49.7238C35.3279 49.6893 35.3491 49.655 35.3703 49.6212C35.414 49.6911 35.458 49.7625 35.5021 49.8354C37.0095 52.3252 37.909 55.1596 37.909 57.1161Z" fill="#FF8000"/>
<path d="M27.5135 27.759C34.1536 29.9328 41.6833 28.3402 46.9155 22.9666C52.1477 17.593 53.6984 9.85982 51.5818 3.04024C44.9417 0.866413 37.412 2.45903 32.1798 7.83265C26.9476 13.2063 25.3969 20.9394 27.5135 27.759Z" fill="#FF8000"/>
<path d="M400.877 29.8257C410.804 29.8257 418.106 37.0576 418.106 48.1181C418.106 59.1786 410.804 66.4105 400.877 66.4105C395.347 66.4105 390.668 64.3544 387.973 60.9512L387.903 65.6306H380.812V16H388.753V34.3633C391.519 31.5273 395.843 29.8257 400.877 29.8257ZM399.459 59.1786C405.77 59.1786 410.165 54.641 410.165 48.1181C410.165 41.5952 405.77 37.0576 399.459 37.0576C393.22 37.0576 388.753 41.5952 388.753 48.1181C388.753 54.641 393.22 59.1786 399.459 59.1786Z" fill="black"/>
<path d="M364.798 30.6051H371.888V65.6301H364.798L364.727 60.9507C362.032 64.3539 357.353 66.41 351.964 66.41C341.684 66.41 334.594 58.8946 334.594 48.1176C334.594 37.3407 341.684 29.8252 351.964 29.8252C357.424 29.8252 362.032 31.8813 364.727 35.2846L364.798 30.6051ZM353.241 59.1782C359.551 59.1782 363.947 54.6405 363.947 48.1176C363.947 41.5947 359.551 37.0571 353.241 37.0571C346.93 37.0571 342.535 41.5947 342.535 48.1176C342.535 54.6405 346.93 59.1782 353.241 59.1782Z" fill="black"/>
<path d="M319.914 65.6306V16H327.855V65.6306H319.914Z" fill="black"/>
<path d="M303.048 16H310.989V65.6306H303.899L303.828 60.9512C301.134 64.3544 296.454 66.4105 290.924 66.4105C280.998 66.4105 273.695 59.1786 273.695 48.1181C273.695 37.0576 280.998 29.8257 290.924 29.8257C295.958 29.8257 300.283 31.5273 303.048 34.3633V16ZM292.342 59.1786C298.652 59.1786 303.048 54.641 303.048 48.1181C303.048 41.5952 298.652 37.0576 292.342 37.0576C286.032 37.0576 281.636 41.5952 281.636 48.1181C281.636 54.641 286.032 59.1786 292.342 59.1786Z" fill="black"/>
<path d="M252.613 29.8965C261.618 29.8965 267.573 36.2776 267.573 46.2746V65.6305H259.632V46.7709C259.632 40.6025 256.442 37.0575 251.124 37.0575C245.31 37.0575 241.269 41.3115 241.269 47.1963V65.6305H233.328V30.6055H240.418L240.489 35.2141C243.467 31.669 247.65 29.8965 252.613 29.8965Z" fill="black"/>
<path d="M208.042 66.41C196.627 66.41 189.324 58.6109 189.324 48.1176C189.324 37.6243 196.627 29.8252 208.042 29.8252C219.386 29.8252 226.689 37.6243 226.689 48.1176C226.689 58.6109 219.386 66.41 208.042 66.41ZM208.042 59.1782C214.565 59.1782 218.748 54.2151 218.748 48.1176C218.748 42.0201 214.565 37.0571 208.042 37.0571C201.448 37.0571 197.265 42.0201 197.265 48.1176C197.265 54.2151 201.448 59.1782 208.042 59.1782Z" fill="black"/>
<path d="M168.554 29.8965C177.558 29.8965 183.16 35.6395 183.16 45.1402V65.6305H175.219V45.7783C175.219 40.1771 172.666 37.0575 167.916 37.0575C162.669 37.0575 159.195 40.7443 159.195 46.2037V65.6305H151.254V45.7783C151.254 40.1771 148.631 37.0575 143.88 37.0575C138.705 37.0575 135.16 40.7443 135.16 46.2037V65.6305H127.219V30.6055H134.309L134.38 34.7177C136.932 31.4563 140.335 29.8965 144.731 29.8965C149.694 29.8965 153.877 32.2362 156.075 36.0649C158.841 31.9526 163.095 29.8965 168.554 29.8965Z" fill="black"/>
<path d="M111.204 30.6051H118.294V65.6301H111.204L111.133 60.9507C108.439 64.3539 103.759 66.41 98.3707 66.41C88.0901 66.41 81 58.8946 81 48.1176C81 37.3407 88.0901 29.8252 98.3707 29.8252C103.83 29.8252 108.439 31.8813 111.133 35.2846L111.204 30.6051ZM99.6469 59.1782C105.957 59.1782 110.353 54.6405 110.353 48.1176C110.353 41.5947 105.957 37.0571 99.6469 37.0571C93.3368 37.0571 88.9409 41.5947 88.9409 48.1176C88.9409 54.6405 93.3368 59.1782 99.6469 59.1782Z" fill="black"/>
</svg>
